<?xml version="1.0" encoding="UTF-8" standalone="no"?>
<!DOCTYPE svg PUBLIC "-//W3C//DTD SVG 1.1//EN"
 "http://www.w3.org/Graphics/SVG/1.1/DTD/svg11.dtd">
<!-- Generated by graphviz version 2.44.1 (0)
 -->
<!-- Title: CSG Pages: 1 -->
<svg width="1422pt" height="553pt"
 viewBox="0.00 0.00 1422.35 553.40" xmlns="http://www.w3.org/2000/svg" xmlns:xlink="http://www.w3.org/1999/xlink">
<g id="graph0" class="graph" transform="scale(1 1) rotate(0) translate(4 549.4)">
<title>CSG</title>
<polygon fill="white" stroke="transparent" points="-4,4 -4,-549.4 1418.35,-549.4 1418.35,4 -4,4"/>
<!-- 0 -->
<g id="node1" class="node">
<title>0</title>
<polygon fill="none" stroke="black" points="520.35,-94.2 466.35,-94.2 466.35,-58.2 520.35,-58.2 520.35,-94.2"/>
<text text-anchor="middle" x="493.35" y="-72.5" font-family="noto" font-size="14.00">0</text>
</g>
<!-- n0_0 -->
<g id="node2" class="node">
<title>n0_0</title>
<ellipse fill="black" stroke="black" cx="561.35" cy="-3.6" rx="3.6" ry="3.6"/>
</g>
<!-- 0&#45;&gt;n0_0 -->
<g id="edge1" class="edge">
<title>0&#45;&gt;n0_0</title>
<path fill="none" stroke="black" d="M484.07,-57.87C479.87,-47.44 477.26,-34.44 484.35,-25.2 502.55,-1.49 544.85,-3.13 557.63,-4.22"/>
<text text-anchor="middle" x="550.85" y="-29" font-family="Times,serif" font-size="14.00">0:[p1wait][p2wait]</text>
</g>
<!-- n0_0&#45;&gt;0 -->
<g id="edge2" class="edge">
<title>n0_0&#45;&gt;0</title>
<path fill="none" stroke="black" d="M564.92,-4.63C575.19,-4.93 604.9,-7.36 617.35,-25.2 621.16,-30.67 621.37,-34.88 617.35,-40.2 606.84,-54.08 563.27,-64.02 530.73,-69.68"/>
<polygon fill="black" stroke="black" points="529.89,-66.27 520.6,-71.37 531.04,-73.18 529.89,-66.27"/>
<text text-anchor="middle" x="631.85" y="-29" font-family="Times,serif" font-size="14.00">1.0</text>
</g>
<!-- 1 -->
<g id="node3" class="node">
<title>1</title>
<polygon fill="none" stroke="black" points="310.35,-94.2 256.35,-94.2 256.35,-58.2 310.35,-58.2 310.35,-94.2"/>
<text text-anchor="middle" x="283.35" y="-72.5" font-family="noto" font-size="14.00">1</text>
</g>
<!-- n1_0 -->
<g id="node4" class="node">
<title>n1_0</title>
<ellipse fill="black" stroke="black" cx="347.35" cy="-3.6" rx="3.6" ry="3.6"/>
</g>
<!-- 1&#45;&gt;n1_0 -->
<g id="edge3" class="edge">
<title>1&#45;&gt;n1_0</title>
<path fill="none" stroke="black" d="M272.08,-57.98C266.82,-47.59 263.14,-34.59 270.35,-25.2 288.55,-1.49 330.85,-3.13 343.63,-4.22"/>
<text text-anchor="middle" x="336.85" y="-29" font-family="Times,serif" font-size="14.00">0:[p1wait][p2wait]</text>
</g>
<!-- n1_0&#45;&gt;1 -->
<g id="edge4" class="edge">
<title>n1_0&#45;&gt;1</title>
<path fill="none" stroke="black" d="M350.92,-4.63C361.19,-4.93 390.9,-7.36 403.35,-25.2 407.16,-30.67 407.35,-34.87 403.35,-40.2 384.41,-65.45 348.27,-73.3 320.58,-75.38"/>
<polygon fill="black" stroke="black" points="320.23,-71.9 310.43,-75.92 320.6,-78.89 320.23,-71.9"/>
<text text-anchor="middle" x="417.85" y="-29" font-family="Times,serif" font-size="14.00">1.0</text>
</g>
<!-- 2 -->
<g id="node5" class="node">
<title>2</title>
<polygon fill="none" stroke="black" points="122.35,-247.2 68.35,-247.2 68.35,-211.2 122.35,-211.2 122.35,-247.2"/>
<text text-anchor="middle" x="95.35" y="-225.5" font-family="noto" font-size="14.00">2</text>
</g>
<!-- n2_0 -->
<g id="node6" class="node">
<title>n2_0</title>
<ellipse fill="black" stroke="black" cx="80.35" cy="-152.7" rx="3.6" ry="3.6"/>
</g>
<!-- 2&#45;&gt;n2_0 -->
<g id="edge5" class="edge">
<title>2&#45;&gt;n2_0</title>
<path fill="none" stroke="black" d="M68.14,-225.95C46.6,-222.58 17.8,-214.16 3.35,-193.2 -15.93,-165.25 58.84,-155.86 76.63,-154.05"/>
<text text-anchor="middle" x="69.85" y="-182" font-family="Times,serif" font-size="14.00">0:[p1wait][p2wait]</text>
</g>
<!-- n2_0&#45;&gt;2 -->
<g id="edge6" class="edge">
<title>n2_0&#45;&gt;2</title>
<path fill="none" stroke="black" d="M83.94,-153.98C94.28,-155.01 124.15,-159.55 136.35,-178.2 142.23,-187.19 137.98,-196.45 130.36,-204.51"/>
<polygon fill="black" stroke="black" points="127.66,-202.24 122.6,-211.55 132.36,-207.42 127.66,-202.24"/>
<text text-anchor="middle" x="150.85" y="-182" font-family="Times,serif" font-size="14.00">1.0</text>
</g>
<!-- 3 -->
<g id="node7" class="node">
<title>3</title>
<polygon fill="none" stroke="black" points="999.35,-94.2 945.35,-94.2 945.35,-58.2 999.35,-58.2 999.35,-94.2"/>
<text text-anchor="middle" x="972.35" y="-72.5" font-family="noto" font-size="14.00">3</text>
</g>
<!-- n3_0 -->
<g id="node8" class="node">
<title>n3_0</title>
<ellipse fill="black" stroke="black" cx="972.35" cy="-3.6" rx="3.6" ry="3.6"/>
</g>
<!-- 3&#45;&gt;n3_0 -->
<g id="edge7" class="edge">
<title>3&#45;&gt;n3_0</title>
<path fill="none" stroke="black" d="M945.28,-69C917.07,-61.25 879.09,-46.38 895.35,-25.2 913.55,-1.49 955.85,-3.13 968.63,-4.22"/>
<text text-anchor="middle" x="961.85" y="-29" font-family="Times,serif" font-size="14.00">0:[p1wait][p2wait]</text>
</g>
<!-- n3_0&#45;&gt;3 -->
<g id="edge8" class="edge">
<title>n3_0&#45;&gt;3</title>
<path fill="none" stroke="black" d="M975.92,-4.63C986.19,-4.93 1015.9,-7.36 1028.35,-25.2 1037.66,-38.55 1024.56,-50.77 1008.7,-59.79"/>
<polygon fill="black" stroke="black" points="1006.99,-56.74 999.73,-64.46 1010.22,-62.95 1006.99,-56.74"/>
<text text-anchor="middle" x="1042.85" y="-29" font-family="Times,serif" font-size="14.00">1.0</text>
</g>
<!-- 4 -->
<g id="node9" class="node">
<title>4</title>
<polygon fill="none" stroke="black" points="785.35,-247.2 731.35,-247.2 731.35,-211.2 785.35,-211.2 785.35,-247.2"/>
<text text-anchor="middle" x="758.35" y="-225.5" font-family="noto" font-size="14.00">4</text>
</g>
<!-- n4_0 -->
<g id="node10" class="node">
<title>n4_0</title>
<ellipse fill="black" stroke="black" cx="314.35" cy="-152.7" rx="3.6" ry="3.6"/>
</g>
<!-- 4&#45;&gt;n4_0 -->
<g id="edge9" class="edge">
<title>4&#45;&gt;n4_0</title>
<path fill="none" stroke="black" d="M731.12,-228.62C650.32,-229.45 413.35,-228.71 346.35,-193.2 330.13,-184.6 319.14,-163.9 315.59,-156.44"/>
<text text-anchor="middle" x="421.35" y="-182" font-family="Times,serif" font-size="14.00">0:[p1wait][p2shoot1]</text>
</g>
<!-- n4_1 -->
<g id="node11" class="node">
<title>n4_1</title>
<ellipse fill="black" stroke="black" cx="493.35" cy="-152.7" rx="3.6" ry="3.6"/>
</g>
<!-- 4&#45;&gt;n4_1 -->
<g id="edge11" class="edge">
<title>4&#45;&gt;n4_1</title>
<path fill="none" stroke="black" d="M731.2,-227.65C674.21,-225.98 544.56,-219.33 510.35,-193.2 498.01,-183.77 494.5,-163.59 493.62,-156.35"/>
<text text-anchor="middle" x="593.85" y="-182" font-family="Times,serif" font-size="14.00">1:[p1shoot2][p2shoot1]</text>
</g>
<!-- n4_2 -->
<g id="node12" class="node">
<title>n4_2</title>
<ellipse fill="black" stroke="black" cx="761.35" cy="-152.7" rx="3.6" ry="3.6"/>
</g>
<!-- 4&#45;&gt;n4_2 -->
<g id="edge13" class="edge">
<title>4&#45;&gt;n4_2</title>
<path fill="none" stroke="black" d="M731.22,-221.57C704.35,-213.65 669.25,-198.85 684.35,-178.2 702.23,-153.74 744.76,-153.11 757.61,-153.52"/>
<text text-anchor="middle" x="750.85" y="-182" font-family="Times,serif" font-size="14.00">2:[p1wait][p2wait]</text>
</g>
<!-- n4_3 -->
<g id="node13" class="node">
<title>n4_3</title>
<ellipse fill="black" stroke="black" cx="897.35" cy="-152.7" rx="3.6" ry="3.6"/>
</g>
<!-- 4&#45;&gt;n4_3 -->
<g id="edge15" class="edge">
<title>4&#45;&gt;n4_3</title>
<path fill="none" stroke="black" d="M785.43,-219.65C803.31,-213.47 826.93,-204.29 846.35,-193.2 866.97,-181.43 888.41,-162.06 895.17,-155.76"/>
<text text-anchor="middle" x="942.35" y="-182" font-family="Times,serif" font-size="14.00">3:[p1shoot2][p2wait]</text>
</g>
<!-- n4_0&#45;&gt;1 -->
<g id="edge10" class="edge">
<title>n4_0&#45;&gt;1</title>
<path fill="none" stroke="black" d="M313.32,-149.22C310.36,-142.11 301.58,-121 294.28,-103.47"/>
<polygon fill="black" stroke="black" points="297.5,-102.09 290.42,-94.2 291.04,-104.78 297.5,-102.09"/>
<text text-anchor="middle" x="315.85" y="-116" font-family="Times,serif" font-size="14.00">1.0</text>
</g>
<!-- n4_1&#45;&gt;0 -->
<g id="edge12" class="edge">
<title>n4_1&#45;&gt;0</title>
<path fill="none" stroke="black" d="M493.35,-148.87C493.35,-141.56 493.35,-121.44 493.35,-104.37"/>
<polygon fill="black" stroke="black" points="496.85,-104.27 493.35,-94.27 489.85,-104.27 496.85,-104.27"/>
<text text-anchor="middle" x="504.85" y="-116" font-family="Times,serif" font-size="14.00">1.0</text>
</g>
<!-- n4_2&#45;&gt;4 -->
<g id="edge14" class="edge">
<title>n4_2&#45;&gt;4</title>
<path fill="none" stroke="black" d="M764.94,-153.98C775.28,-155.01 805.15,-159.55 817.35,-178.2 821,-183.78 820.65,-187.41 817.35,-193.2 812.18,-202.28 803.62,-209.25 794.6,-214.49"/>
<polygon fill="black" stroke="black" points="792.83,-211.46 785.54,-219.16 796.04,-217.69 792.83,-211.46"/>
<text text-anchor="middle" x="830.85" y="-182" font-family="Times,serif" font-size="14.00">1.0</text>
</g>
<!-- n4_3&#45;&gt;3 -->
<g id="edge16" class="edge">
<title>n4_3&#45;&gt;3</title>
<path fill="none" stroke="black" d="M899.51,-149.55C906.53,-142.58 929.27,-119.99 947.49,-101.89"/>
<polygon fill="black" stroke="black" points="950.34,-103.99 954.97,-94.46 945.41,-99.03 950.34,-103.99"/>
<text text-anchor="middle" x="947.85" y="-116" font-family="Times,serif" font-size="14.00">1.0</text>
</g>
<!-- 5 -->
<g id="node14" class="node">
<title>5</title>
<polygon fill="none" stroke="black" points="489.35,-400.2 435.35,-400.2 435.35,-364.2 489.35,-364.2 489.35,-400.2"/>
<text text-anchor="middle" x="462.35" y="-378.5" font-family="noto" font-size="14.00">5</text>
</g>
<!-- n5_0 -->
<g id="node15" class="node">
<title>n5_0</title>
<ellipse fill="black" stroke="black" cx="95.35" cy="-305.7" rx="3.6" ry="3.6"/>
</g>
<!-- 5&#45;&gt;n5_0 -->
<g id="edge17" class="edge">
<title>5&#45;&gt;n5_0</title>
<path fill="none" stroke="black" d="M435.1,-380.63C354.17,-378.67 119.36,-370.89 96.35,-346.2 86.62,-335.76 92.04,-316.21 94.42,-309.24"/>
<text text-anchor="middle" x="171.35" y="-335" font-family="Times,serif" font-size="14.00">0:[p1wait][p2shoot1]</text>
</g>
<!-- n5_1 -->
<g id="node16" class="node">
<title>n5_1</title>
<ellipse fill="black" stroke="black" cx="269.35" cy="-272.7" rx="3.6" ry="3.6"/>
</g>
<!-- 5&#45;&gt;n5_1 -->
<g id="edge19" class="edge">
<title>5&#45;&gt;n5_1</title>
<path fill="none" stroke="black" d="M435.26,-379.54C390.59,-376.22 304.32,-367.22 283.35,-346.2 263.43,-326.23 267.41,-287.04 268.92,-276.41"/>
<text text-anchor="middle" x="366.85" y="-335" font-family="Times,serif" font-size="14.00">1:[p1shoot2][p2shoot1]</text>
</g>
<!-- n5_2 -->
<g id="node17" class="node">
<title>n5_2</title>
<ellipse fill="black" stroke="black" cx="536.35" cy="-305.7" rx="3.6" ry="3.6"/>
</g>
<!-- 5&#45;&gt;n5_2 -->
<g id="edge21" class="edge">
<title>5&#45;&gt;n5_2</title>
<path fill="none" stroke="black" d="M456.15,-363.89C453.58,-353.47 452.57,-340.47 459.35,-331.2 477.23,-306.74 519.76,-306.11 532.61,-306.52"/>
<text text-anchor="middle" x="525.85" y="-335" font-family="Times,serif" font-size="14.00">2:[p1wait][p2wait]</text>
</g>
<!-- n5_3 -->
<g id="node18" class="node">
<title>n5_3</title>
<ellipse fill="black" stroke="black" cx="709.35" cy="-305.7" rx="3.6" ry="3.6"/>
</g>
<!-- 5&#45;&gt;n5_3 -->
<g id="edge23" class="edge">
<title>5&#45;&gt;n5_3</title>
<path fill="none" stroke="black" d="M489.43,-377.07C521.62,-371.75 576.75,-361.35 622.35,-346.2 656.67,-334.8 695.63,-314.17 706.44,-308.3"/>
<text text-anchor="middle" x="734.35" y="-335" font-family="Times,serif" font-size="14.00">3:[p1shoot2][p2wait]</text>
</g>
<!-- n5_0&#45;&gt;2 -->
<g id="edge18" class="edge">
<title>n5_0&#45;&gt;2</title>
<path fill="none" stroke="black" d="M95.35,-301.87C95.35,-294.56 95.35,-274.44 95.35,-257.37"/>
<polygon fill="black" stroke="black" points="98.85,-257.27 95.35,-247.27 91.85,-257.27 98.85,-257.27"/>
<text text-anchor="middle" x="106.85" y="-269" font-family="Times,serif" font-size="14.00">1.0</text>
</g>
<!-- n5_1&#45;&gt;1 -->
<g id="edge20" class="edge">
<title>n5_1&#45;&gt;1</title>
<path fill="none" stroke="black" d="M269.55,-268.95C270.82,-251.31 277.88,-153.2 281.38,-104.56"/>
<polygon fill="black" stroke="black" points="284.88,-104.65 282.11,-94.43 277.9,-104.15 284.88,-104.65"/>
<text text-anchor="middle" x="287.85" y="-182" font-family="Times,serif" font-size="14.00">1.0</text>
</g>
<!-- n5_2&#45;&gt;5 -->
<g id="edge22" class="edge">
<title>n5_2&#45;&gt;5</title>
<path fill="none" stroke="black" d="M539.9,-307.5C554.5,-310.93 608.42,-325.24 592.35,-346.2 581.08,-360.91 533.88,-370.83 499.59,-376.24"/>
<polygon fill="black" stroke="black" points="498.79,-372.83 489.42,-377.78 499.83,-379.75 498.79,-372.83"/>
<text text-anchor="middle" x="606.85" y="-335" font-family="Times,serif" font-size="14.00">1.0</text>
</g>
<!-- n5_3&#45;&gt;4 -->
<g id="edge24" class="edge">
<title>n5_3&#45;&gt;4</title>
<path fill="none" stroke="black" d="M710.98,-302.22C715.7,-295.04 729.8,-273.61 741.39,-255.98"/>
<polygon fill="black" stroke="black" points="744.59,-257.48 747.17,-247.2 738.75,-253.64 744.59,-257.48"/>
<text text-anchor="middle" x="746.85" y="-269" font-family="Times,serif" font-size="14.00">1.0</text>
</g>
<!-- 6 -->
<g id="node19" class="node">
<title>6</title>
<polygon fill="none" stroke="black" points="1306.35,-247.2 1252.35,-247.2 1252.35,-211.2 1306.35,-211.2 1306.35,-247.2"/>
<text text-anchor="middle" x="1279.35" y="-225.5" font-family="noto" font-size="14.00">6</text>
</g>
<!-- n6_0 -->
<g id="node20" class="node">
<title>n6_0</title>
<ellipse fill="black" stroke="black" cx="1279.35" cy="-152.7" rx="3.6" ry="3.6"/>
</g>
<!-- 6&#45;&gt;n6_0 -->
<g id="edge25" class="edge">
<title>6&#45;&gt;n6_0</title>
<path fill="none" stroke="black" d="M1252.2,-222.06C1224.19,-214.42 1186.64,-199.69 1202.35,-178.2 1220.23,-153.74 1262.76,-153.11 1275.61,-153.52"/>
<text text-anchor="middle" x="1268.85" y="-182" font-family="Times,serif" font-size="14.00">0:[p1wait][p2wait]</text>
</g>
<!-- n6_0&#45;&gt;6 -->
<g id="edge26" class="edge">
<title>n6_0&#45;&gt;6</title>
<path fill="none" stroke="black" d="M1282.94,-153.98C1293.28,-155.01 1323.15,-159.55 1335.35,-178.2 1344.26,-191.82 1331.15,-204.05 1315.39,-213.01"/>
<polygon fill="black" stroke="black" points="1313.74,-209.92 1306.48,-217.63 1316.97,-216.13 1313.74,-209.92"/>
<text text-anchor="middle" x="1348.85" y="-182" font-family="Times,serif" font-size="14.00">1.0</text>
</g>
<!-- 7 -->
<g id="node21" class="node">
<title>7</title>
<polygon fill="none" stroke="black" points="1104.35,-400.2 1050.35,-400.2 1050.35,-364.2 1104.35,-364.2 1104.35,-400.2"/>
<text text-anchor="middle" x="1077.35" y="-378.5" font-family="noto" font-size="14.00">7</text>
</g>
<!-- n7_0 -->
<g id="node22" class="node">
<title>n7_0</title>
<ellipse fill="black" stroke="black" cx="876.35" cy="-305.7" rx="3.6" ry="3.6"/>
</g>
<!-- 7&#45;&gt;n7_0 -->
<g id="edge27" class="edge">
<title>7&#45;&gt;n7_0</title>
<path fill="none" stroke="black" d="M1050.06,-380.28C1001.47,-378.03 902.91,-370.52 880.35,-346.2 870.79,-335.89 873.92,-316.93 875.59,-309.65"/>
<text text-anchor="middle" x="955.35" y="-335" font-family="Times,serif" font-size="14.00">0:[p1wait][p2shoot1]</text>
</g>
<!-- n7_1 -->
<g id="node23" class="node">
<title>n7_1</title>
<ellipse fill="black" stroke="black" cx="1044.35" cy="-185.7" rx="3.6" ry="3.6"/>
</g>
<!-- 7&#45;&gt;n7_1 -->
<g id="edge29" class="edge">
<title>7&#45;&gt;n7_1</title>
<path fill="none" stroke="black" d="M1069.81,-363.96C1064.26,-350.43 1057.05,-330.97 1053.35,-313.2 1043.21,-264.48 1043.96,-203.19 1044.27,-189.5"/>
<text text-anchor="middle" x="1136.85" y="-302" font-family="Times,serif" font-size="14.00">1:[p1shoot2][p2shoot1]</text>
</g>
<!-- n7_2 -->
<g id="node24" class="node">
<title>n7_2</title>
<ellipse fill="black" stroke="black" cx="1233.35" cy="-305.7" rx="3.6" ry="3.6"/>
</g>
<!-- 7&#45;&gt;n7_2 -->
<g id="edge31" class="edge">
<title>7&#45;&gt;n7_2</title>
<path fill="none" stroke="black" d="M1072.53,-363.86C1070.68,-353.16 1070.59,-339.87 1078.35,-331.2 1098.83,-308.32 1185.51,-320.46 1215.35,-313.2 1220.77,-311.88 1226.83,-309.49 1230.35,-308.01"/>
<text text-anchor="middle" x="1144.85" y="-335" font-family="Times,serif" font-size="14.00">2:[p1wait][p2wait]</text>
</g>
<!-- n7_3 -->
<g id="node25" class="node">
<title>n7_3</title>
<ellipse fill="black" stroke="black" cx="1279.35" cy="-305.7" rx="3.6" ry="3.6"/>
</g>
<!-- 7&#45;&gt;n7_3 -->
<g id="edge33" class="edge">
<title>7&#45;&gt;n7_3</title>
<path fill="none" stroke="black" d="M1104.55,-381.43C1140.4,-380.51 1204.2,-374.57 1249.35,-346.2 1264.52,-336.67 1274.84,-316.55 1278.18,-309.34"/>
<text text-anchor="middle" x="1339.35" y="-335" font-family="Times,serif" font-size="14.00">3:[p1shoot2][p2wait]</text>
</g>
<!-- n7_0&#45;&gt;4 -->
<g id="edge28" class="edge">
<title>n7_0&#45;&gt;4</title>
<path fill="none" stroke="black" d="M875.15,-302.19C871.75,-295.32 861.37,-275.99 847.35,-265.2 832.06,-253.43 812.32,-245.14 795.31,-239.58"/>
<polygon fill="black" stroke="black" points="796.25,-236.21 785.67,-236.63 794.2,-242.91 796.25,-236.21"/>
<text text-anchor="middle" x="871.85" y="-269" font-family="Times,serif" font-size="14.00">1.0</text>
</g>
<!-- n7_1&#45;&gt;3 -->
<g id="edge30" class="edge">
<title>n7_1&#45;&gt;3</title>
<path fill="none" stroke="black" d="M1042.57,-182.04C1035.38,-171.31 1007.98,-130.4 989.61,-102.97"/>
<polygon fill="black" stroke="black" points="992.47,-100.95 984,-94.59 986.65,-104.85 992.47,-100.95"/>
<text text-anchor="middle" x="1038.85" y="-149" font-family="Times,serif" font-size="14.00">1.0</text>
</g>
<!-- n7_2&#45;&gt;7 -->
<g id="edge32" class="edge">
<title>n7_2&#45;&gt;7</title>
<path fill="none" stroke="black" d="M1232.68,-309.29C1230.71,-316.37 1224.26,-336.2 1211.35,-346.2 1183.5,-367.77 1143.64,-376.12 1114.64,-379.31"/>
<polygon fill="black" stroke="black" points="1114.11,-375.84 1104.48,-380.27 1114.77,-382.81 1114.11,-375.84"/>
<text text-anchor="middle" x="1233.85" y="-335" font-family="Times,serif" font-size="14.00">1.0</text>
</g>
<!-- n7_3&#45;&gt;6 -->
<g id="edge34" class="edge">
<title>n7_3&#45;&gt;6</title>
<path fill="none" stroke="black" d="M1279.35,-301.87C1279.35,-294.56 1279.35,-274.44 1279.35,-257.37"/>
<polygon fill="black" stroke="black" points="1282.85,-257.27 1279.35,-247.27 1275.85,-257.27 1282.85,-257.27"/>
<text text-anchor="middle" x="1290.85" y="-269" font-family="Times,serif" font-size="14.00">1.0</text>
</g>
<!-- 8 -->
<g id="node26" class="node">
<title>8</title>
<polygon fill="none" stroke="black" points="902.35,-545.4 848.35,-545.4 848.35,-509.4 902.35,-509.4 902.35,-545.4"/>
<text text-anchor="middle" x="875.35" y="-523.7" font-family="noto" font-size="14.00">8</text>
</g>
<!-- n8_0 -->
<g id="node27" class="node">
<title>n8_0</title>
<ellipse fill="black" stroke="black" cx="482.35" cy="-454.8" rx="3.6" ry="3.6"/>
</g>
<!-- 8&#45;&gt;n8_0 -->
<g id="edge35" class="edge">
<title>8&#45;&gt;n8_0</title>
<path fill="none" stroke="black" d="M848.1,-526.34C774.22,-525.78 571.73,-521.45 513.35,-491.4 498.19,-483.6 487.2,-464.97 483.61,-458.26"/>
<text text-anchor="middle" x="588.35" y="-480.2" font-family="Times,serif" font-size="14.00">0:[p1wait][p2shoot1]</text>
</g>
<!-- n8_1 -->
<g id="node28" class="node">
<title>n8_1</title>
<ellipse fill="black" stroke="black" cx="759.35" cy="-425.7" rx="3.6" ry="3.6"/>
</g>
<!-- 8&#45;&gt;n8_1 -->
<g id="edge37" class="edge">
<title>8&#45;&gt;n8_1</title>
<path fill="none" stroke="black" d="M848.27,-525.07C803.68,-522.26 717.88,-513.98 699.35,-491.4 677.38,-464.64 740.96,-434.7 756.17,-428.05"/>
<text text-anchor="middle" x="782.85" y="-480.2" font-family="Times,serif" font-size="14.00">1:[p1shoot2][p2shoot1]</text>
</g>
<!-- n8_2 -->
<g id="node29" class="node">
<title>n8_2</title>
<ellipse fill="black" stroke="black" cx="953.35" cy="-454.8" rx="3.6" ry="3.6"/>
</g>
<!-- 8&#45;&gt;n8_2 -->
<g id="edge39" class="edge">
<title>8&#45;&gt;n8_2</title>
<path fill="none" stroke="black" d="M870.92,-509.4C869.24,-498.83 869.17,-485.56 876.35,-476.4 894.79,-452.87 936.93,-454.38 949.65,-455.43"/>
<text text-anchor="middle" x="942.85" y="-480.2" font-family="Times,serif" font-size="14.00">2:[p1wait][p2wait]</text>
</g>
<!-- n8_3 -->
<g id="node30" class="node">
<title>n8_3</title>
<ellipse fill="black" stroke="black" cx="1077.35" cy="-454.8" rx="3.6" ry="3.6"/>
</g>
<!-- 8&#45;&gt;n8_3 -->
<g id="edge41" class="edge">
<title>8&#45;&gt;n8_3</title>
<path fill="none" stroke="black" d="M902.48,-524.91C936.06,-522.11 994.22,-514.13 1038.35,-491.4 1055.3,-482.67 1070.45,-464.62 1075.54,-458.16"/>
<text text-anchor="middle" x="1132.35" y="-480.2" font-family="Times,serif" font-size="14.00">3:[p1shoot2][p2wait]</text>
</g>
<!-- n8_0&#45;&gt;5 -->
<g id="edge36" class="edge">
<title>n8_0&#45;&gt;5</title>
<path fill="none" stroke="black" d="M481.59,-451.12C479.68,-444.38 474.52,-426.15 470.02,-410.28"/>
<polygon fill="black" stroke="black" points="473.29,-408.99 467.2,-400.33 466.56,-410.9 473.29,-408.99"/>
<text text-anchor="middle" x="488.85" y="-422" font-family="Times,serif" font-size="14.00">1.0</text>
</g>
<!-- n8_1&#45;&gt;4 -->
<g id="edge38" class="edge">
<title>n8_1&#45;&gt;4</title>
<path fill="none" stroke="black" d="M761.53,-422.52C770.03,-413.86 800.98,-380.64 811.35,-346.2 821.19,-313.53 799.98,-278.17 781.54,-255.19"/>
<polygon fill="black" stroke="black" points="784.04,-252.72 774.93,-247.31 778.68,-257.22 784.04,-252.72"/>
<text text-anchor="middle" x="824.85" y="-335" font-family="Times,serif" font-size="14.00">1.0</text>
</g>
<!-- n8_2&#45;&gt;8 -->
<g id="edge40" class="edge">
<title>n8_2&#45;&gt;8</title>
<path fill="none" stroke="black" d="M956.92,-455.83C967.19,-456.13 996.9,-458.56 1009.35,-476.4 1013.16,-481.87 1013.42,-486.12 1009.35,-491.4 997.58,-506.64 948.07,-516.51 912.66,-521.77"/>
<polygon fill="black" stroke="black" points="912.05,-518.32 902.64,-523.19 913.03,-525.25 912.05,-518.32"/>
<text text-anchor="middle" x="1022.85" y="-480.2" font-family="Times,serif" font-size="14.00">1.0</text>
</g>
<!-- n8_3&#45;&gt;7 -->
<g id="edge42" class="edge">
<title>n8_3&#45;&gt;7</title>
<path fill="none" stroke="black" d="M1077.35,-451.12C1077.35,-444.45 1077.35,-426.5 1077.35,-410.73"/>
<polygon fill="black" stroke="black" points="1080.85,-410.33 1077.35,-400.33 1073.85,-410.33 1080.85,-410.33"/>
<text text-anchor="middle" x="1088.85" y="-422" font-family="Times,serif" font-size="14.00">1.0</text>
</g>
</g>
</svg>
